{
  "accessors": [
    {
      "bufferView": 2,
      "componentType": 5126,
      "count": 21695,
      "max": [
        173.5613555908203,
        159.18048095703125,
        36.552467346191406
      ],
      "min": [
        -173.5613555908203,
        0.0,
        -36.552467346191406
      ],
      "type": "VEC3"
    },
    {
      "bufferView": 2,
      "byteOffset": 260340,
      "componentType": 5126,
      "count": 21695,
      "max": [
        0.9999997615814209,
        1.0,
        0.9999994039535522
      ],
      "min": [
        -0.9999997615814209,
        -1.0,
        -0.9999964833259583
      ],
      "type": "VEC3"
    },
    {
      "bufferView": 1,
      "componentType": 5126,
      "count": 21695,
      "max": [
        0.9952716827392578,
        0.9957390427589417
      ],
      "min": [
        0.004252402111887932,
        0.0043517351150512695
      ],
      "type": "VEC2"
    },
    {
      "bufferView": 1,
      "byteOffset": 173560,
      "componentType": 5126,
      "count": 21695,
      "max": [
        0.9952716827392578,
        0.9957390427589417
      ],
      "min": [
        0.004252402111887932,
        0.0043517351150512695
      ],
      "type": "VEC2"
    },
    {
      "bufferView": 1,
      "byteOffset": 347120,
      "componentType": 5126,
      "count": 21695,
      "max": [
        0.9952716827392578,
        0.9957390427589417
      ],
      "min": [
        0.004252402111887932,
        0.0043517351150512695
      ],
      "type": "VEC2"
    },
    {
      "bufferView": 1,
      "byteOffset": 520680,
      "componentType": 5126,
      "count": 21695,
      "max": [
        0.9952716827392578,
        0.9957390427589417
      ],
      "min": [
        0.004252402111887932,
        0.0043517351150512695
      ],
      "type": "VEC2"
    },
    {
      "bufferView": 1,
      "byteOffset": 694240,
      "componentType": 5126,
      "count": 21695,
      "max": [
        0.9952716827392578,
        0.9957390427589417
      ],
      "min": [
        0.004252402111887932,
        0.0043517351150512695
      ],
      "type": "VEC2"
    },
    {
      "bufferView": 1,
      "byteOffset": 867800,
      "componentType": 5126,
      "count": 21695,
      "max": [
        0.9952716827392578,
        0.9957390427589417
      ],
      "min": [
        0.004252402111887932,
        0.0043517351150512695
      ],
      "type": "VEC2"
    },
    {
      "bufferView": 1,
      "byteOffset": 1041360,
      "componentType": 5126,
      "count": 21695,
      "max": [
        0.9952716827392578,
        0.9957390427589417
      ],
      "min": [
        0.004252402111887932,
        0.0043517351150512695
      ],
      "type": "VEC2"
    },
    {
      "bufferView": 1,
      "byteOffset": 1214920,
      "componentType": 5126,
      "count": 21695,
      "max": [
        0.9952716827392578,
        0.9957390427589417
      ],
      "min": [
        0.004252402111887932,
        0.0043517351150512695
      ],
      "type": "VEC2"
    },
    {
      "bufferView": 1,
      "byteOffset": 1388480,
      "componentType": 5126,
      "count": 21695,
      "max": [
        0.9952716827392578,
        0.9957390427589417
      ],
      "min": [
        0.004252402111887932,
        0.0043517351150512695
      ],
      "type": "VEC2"
    },
    {
      "bufferView": 0,
      "componentType": 5125,
      "count": 104943,
      "type": "SCALAR"
    }
  ],
  "asset": {
    "extras": {
      "author": "CrappyTestAccount (https://sketchfab.com/testcrap)",
      "license": "CC-BY-4.0 (http://creativecommons.org/licenses/by/4.0/)",
      "source": "https://sketchfab.com/3d-models/satellite-thing-1033b6737d17435f8621b020e9722825",
      "title": "Satellite thing"
    },
    "generator": "Sketchfab-14.26.0",
    "version": "2.0"
  },
  "bufferViews": [
    {
      "buffer": 0,
      "byteLength": 419772,
      "name": "floatBufferViews",
      "target": 34963
    },
    {
      "buffer": 0,
      "byteLength": 1562040,
      "byteOffset": 419772,
      "byteStride": 8,
      "name": "floatBufferViews",
      "target": 34962
    },
    {
      "buffer": 0,
      "byteLength": 520680,
      "byteOffset": 1981812,
      "byteStride": 12,
      "name": "floatBufferViews",
      "target": 34962
    }
  ],
  "buffers": [
    {
      "byteLength": 2502492,
      "uri": "scene.bin"
    }
  ],
  "images": [
    {
      "uri": "textures/Material_51_baseColor.png"
    }
  ],
  "materials": [
    {
      "doubleSided": true,
      "name": "Material_51",
      "pbrMetallicRoughness": {
        "baseColorTexture": {
          "index": 0
        },
        "metallicFactor": 0.0,
        "roughnessFactor": 0.0
      }
    }
  ],
  "meshes": [
    {
      "name": "node_id30_Material_51_0",
      "primitives": [
        {
          "attributes": {
            "NORMAL": 1,
            "POSITION": 0,
            "TEXCOORD_0": 2,
            "TEXCOORD_1": 3,
            "TEXCOORD_2": 4,
            "TEXCOORD_3": 5,
            "TEXCOORD_4": 6,
            "TEXCOORD_5": 7,
            "TEXCOORD_6": 8,
            "TEXCOORD_7": 9,
            "TEXCOORD_8": 10
          },
          "indices": 11,
          "material": 0,
          "mode": 4
        }
      ]
    }
  ],
  "nodes": [
    {
      "children": [
        1
      ],
      "matrix": [
        1.0,
        0.0,
        0.0,
        0.0,
        0.0,
        2.220446049250313e-16,
        -1.0,
        0.0,
        0.0,
        1.0,
        2.220446049250313e-16,
        0.0,
        0.0,
        0.0,
        0.0,
        1.0
      ],
      "name": "Sketchfab_model"
    },
    {
      "children": [
        2
      ],
      "matrix": [
        0.009999999776482582,
        0.0,
        0.0,
        0.0,
        0.0,
        0.0,
        0.009999999776482582,
        0.0,
        0.0,
        -0.009999999776482582,
        0.0,
        0.0,
        0.0,
        0.0,
        0.0,
        1.0
      ],
      "name": "3334736b33e24d17891fe18891ac433e.fbx"
    },
    {
      "children": [
        3
      ],
      "name": "RootNode"
    },
    {
      "children": [
        4
      ],
      "name": "root"
    },
    {
      "children": [
        5
      ],
      "matrix": [
        0.001474982826039195,
        0.0,
        0.0,
        0.0,
        0.0,
        0.001474982826039195,
        0.0,
        0.0,
        0.0,
        0.0,
        0.001474982826039195,
        0.0,
        2.3566342122194328e-07,
        -0.11739425361156464,
        0.25600001215934753,
        1.0
      ],
      "name": "node_id30"
    },
    {
      "mesh": 0,
      "name": "node_id30_Material_51_0"
    }
  ],
  "samplers": [
    {
      "magFilter": 9729,
      "minFilter": 9987,
      "wrapS": 10497,
      "wrapT": 10497
    }
  ],
  "scene": 0,
  "scenes": [
    {
      "name": "Sketchfab_Scene",
      "nodes": [
        0
      ]
    }
  ],
  "textures": [
    {
      "sampler": 0,
      "source": 0
    }
  ]
}
