{
  "accessors": [
    {
      "bufferView": 2,
      "componentType": 5126,
      "count": 10521,
      "max": [
        1.7046600580215454,
        2.0009899139404297,
        0.7536399960517883
      ],
      "min": [
        -1.7046600580215454,
        -0.9880300164222717,
        -0.9984300136566162
      ],
      "type": "VEC3"
    },
    {
      "bufferView": 2,
      "byteOffset": 126252,
      "componentType": 5126,
      "count": 10521,
      "max": [
        1.0,
        1.0,
        1.0
      ],
      "min": [
        -1.0,
        -1.0,
        -1.0
      ],
      "type": "VEC3"
    },
    {
      "bufferView": 1,
      "componentType": 5126,
      "count": 10521,
      "max": [
        0.0,
        0.0
      ],
      "min": [
        0.0,
        0.0
      ],
      "type": "VEC2"
    },
    {
      "bufferView": 0,
      "componentType": 5125,
      "count": 60480,
      "type": "SCALAR"
    },
    {
      "bufferView": 2,
      "byteOffset": 252504,
      "componentType": 5126,
      "count": 5755,
      "max": [
        1.6843299865722656,
        1.7351800203323364,
        1.6065700054168701
      ],
      "min": [
        -1.6843299865722656,
        -0.9710900187492371,
        -0.2524999976158142
      ],
      "type": "VEC3"
    },
    {
      "bufferView": 2,
      "byteOffset": 321564,
      "componentType": 5126,
      "count": 5755,
      "max": [
        1.0,
        1.0,
        1.0
      ],
      "min": [
        -1.0,
        -1.0,
        -0.9964198470115662
      ],
      "type": "VEC3"
    },
    {
      "bufferView": 1,
      "byteOffset": 84168,
      "componentType": 5126,
      "count": 5755,
      "max": [
        0.0,
        0.0
      ],
      "min": [
        0.0,
        0.0
      ],
      "type": "VEC2"
    },
    {
      "bufferView": 0,
      "byteOffset": 241920,
      "componentType": 5125,
      "count": 32448,
      "type": "SCALAR"
    },
    {
      "bufferView": 2,
      "byteOffset": 390624,
      "componentType": 5126,
      "count": 800,
      "max": [
        0.5757700204849243,
        0.5757700204849243,
        0.37681999802589417
      ],
      "min": [
        -0.5757700204849243,
        -0.8614699840545654,
        -0.9948499798774719
      ],
      "type": "VEC3"
    },
    {
      "bufferView": 2,
      "byteOffset": 400224,
      "componentType": 5126,
      "count": 800,
      "max": [
        0.992610514163971,
        0.9584649801254272,
        0.9999887347221375
      ],
      "min": [
        -0.992610514163971,
        -0.980018138885498,
        -0.9999868273735046
      ],
      "type": "VEC3"
    },
    {
      "bufferView": 1,
      "byteOffset": 130208,
      "componentType": 5126,
      "count": 800,
      "max": [
        0.0,
        0.0
      ],
      "min": [
        0.0,
        0.0
      ],
      "type": "VEC2"
    },
    {
      "bufferView": 0,
      "byteOffset": 371712,
      "componentType": 5125,
      "count": 3840,
      "type": "SCALAR"
    },
    {
      "bufferView": 2,
      "byteOffset": 409824,
      "componentType": 5126,
      "count": 500,
      "max": [
        0.5003899931907654,
        0.1163100004196167,
        1.6449099779129028
      ],
      "min": [
        -0.5003899931907654,
        -0.8314599990844727,
        0.2285500019788742
      ],
      "type": "VEC3"
    },
    {
      "bufferView": 2,
      "byteOffset": 415824,
      "componentType": 5126,
      "count": 500,
      "max": [
        0.9045405387878418,
        0.9863985776901245,
        1.0
      ],
      "min": [
        -0.9045405387878418,
        -0.9162350296974182,
        0.16437143087387085
      ],
      "type": "VEC3"
    },
    {
      "bufferView": 1,
      "byteOffset": 136608,
      "componentType": 5126,
      "count": 500,
      "max": [
        0.0,
        0.0
      ],
      "min": [
        0.0,
        0.0
      ],
      "type": "VEC2"
    },
    {
      "bufferView": 0,
      "byteOffset": 387072,
      "componentType": 5125,
      "count": 2304,
      "type": "SCALAR"
    },
    {
      "bufferView": 2,
      "byteOffset": 421824,
      "componentType": 5126,
      "count": 165,
      "max": [
        0.30564001202583313,
        -0.2375900000333786,
        1.6518800258636475
      ],
      "min": [
        -0.30564001202583313,
        -0.3735699951648712,
        1.6399400234222412
      ],
      "type": "VEC3"
    },
    {
      "bufferView": 2,
      "byteOffset": 423804,
      "componentType": 5126,
      "count": 165,
      "max": [
        0.5761693716049194,
        0.7051955461502075,
        0.9999995827674866
      ],
      "min": [
        -0.5761693716049194,
        -0.4798782765865326,
        0.6748952865600586
      ],
      "type": "VEC3"
    },
    {
      "bufferView": 3,
      "componentType": 5126,
      "count": 165,
      "max": [
        1.0,
        0.1917652040719986,
        0.5933407545089722,
        1.0
      ],
      "min": [
        0.8014523386955261,
        -0.1917651891708374,
        -0.5933406949043274,
        1.0
      ],
      "type": "VEC4"
    },
    {
      "bufferView": 1,
      "byteOffset": 140608,
      "componentType": 5126,
      "count": 165,
      "max": [
        0.9999499917030334,
        0.2606399953365326
      ],
      "min": [
        4.999999873689376e-05,
        0.003100000089034438
      ],
      "type": "VEC2"
    },
    {
      "bufferView": 0,
      "byteOffset": 396288,
      "componentType": 5125,
      "count": 768,
      "type": "SCALAR"
    },
    {
      "bufferView": 2,
      "byteOffset": 425784,
      "componentType": 5126,
      "count": 245,
      "max": [
        0.49406999349594116,
        0.9623399972915649,
        0.3826799988746643
      ],
      "min": [
        -0.49406999349594116,
        0.8169900178909302,
        0.19508999586105347
      ],
      "type": "VEC3"
    },
    {
      "bufferView": 2,
      "byteOffset": 428724,
      "componentType": 5126,
      "count": 245,
      "max": [
        0.9455057978630066,
        0.9997352361679077,
        1.0
      ],
      "min": [
        -0.9455057978630066,
        0.0,
        -1.0
      ],
      "type": "VEC3"
    },
    {
      "bufferView": 1,
      "byteOffset": 141928,
      "componentType": 5126,
      "count": 245,
      "max": [
        0.0,
        0.0
      ],
      "min": [
        0.0,
        0.0
      ],
      "type": "VEC2"
    },
    {
      "bufferView": 0,
      "byteOffset": 399360,
      "componentType": 5125,
      "count": 1344,
      "type": "SCALAR"
    },
    {
      "bufferView": 2,
      "byteOffset": 431664,
      "componentType": 5126,
      "count": 5697,
      "max": [
        0.9920200109481812,
        0.9920200109481812,
        0.9797700047492981
      ],
      "min": [
        -0.9920200109481812,
        -0.9920200109481812,
        0.19492000341415405
      ],
      "type": "VEC3"
    },
    {
      "bufferView": 2,
      "byteOffset": 500028,
      "componentType": 5126,
      "count": 5697,
      "max": [
        0.9387396574020386,
        0.9387396574020386,
        1.0
      ],
      "min": [
        -0.9387396574020386,
        -0.9387396574020386,
        -0.9995778799057007
      ],
      "type": "VEC3"
    },
    {
      "bufferView": 0,
      "byteOffset": 404736,
      "componentType": 5125,
      "count": 23808,
      "type": "SCALAR"
    },
    {
      "bufferView": 2,
      "byteOffset": 568392,
      "componentType": 5126,
      "count": 2304,
      "max": [
        0.9920200109481812,
        0.9920200109481812,
        0.9301300048828125
      ],
      "min": [
        -0.9920200109481812,
        -0.9920200109481812,
        0.20358000695705414
      ],
      "type": "VEC3"
    },
    {
      "bufferView": 2,
      "byteOffset": 596040,
      "componentType": 5126,
      "count": 2304,
      "max": [
        0.9896369576454163,
        0.9896369576454163,
        0.9834479689598083
      ],
      "min": [
        -0.9896369576454163,
        -0.9896369576454163,
        -0.15207524597644806
      ],
      "type": "VEC3"
    },
    {
      "bufferView": 0,
      "byteOffset": 499968,
      "componentType": 5125,
      "count": 12288,
      "type": "SCALAR"
    },
    {
      "bufferView": 2,
      "byteOffset": 623688,
      "componentType": 5126,
      "count": 3653,
      "max": [
        0.9904099702835083,
        1.4392999410629272,
        2.4917900562286377
      ],
      "min": [
        -0.9904099702835083,
        -0.9904099702835083,
        -1.0
      ],
      "type": "VEC3"
    },
    {
      "bufferView": 2,
      "byteOffset": 667524,
      "componentType": 5126,
      "count": 3653,
      "max": [
        0.9999619126319885,
        0.9999619126319885,
        1.0
      ],
      "min": [
        -0.9999619126319885,
        -0.9999619126319885,
        -1.0
      ],
      "type": "VEC3"
    },
    {
      "bufferView": 0,
      "byteOffset": 549120,
      "componentType": 5125,
      "count": 19200,
      "type": "SCALAR"
    },
    {
      "bufferView": 2,
      "byteOffset": 711360,
      "componentType": 5126,
      "count": 3054,
      "max": [
        0.9788699746131897,
        1.3528200387954712,
        2.4881300926208496
      ],
      "min": [
        -0.9788699746131897,
        -0.9788699746131897,
        -0.7955700159072876
      ],
      "type": "VEC3"
    },
    {
      "bufferView": 2,
      "byteOffset": 748008,
      "componentType": 5126,
      "count": 3054,
      "max": [
        0.998700737953186,
        0.9990536570549011,
        1.0
      ],
      "min": [
        -0.9916332960128784,
        -0.9990251064300537,
        -0.9840927720069885
      ],
      "type": "VEC3"
    },
    {
      "bufferView": 0,
      "byteOffset": 625920,
      "componentType": 5125,
      "count": 16128,
      "type": "SCALAR"
    },
    {
      "bufferView": 2,
      "byteOffset": 784656,
      "componentType": 5126,
      "count": 640,
      "max": [
        0.7819600105285645,
        0.7819600105285645,
        0.4886400103569031
      ],
      "min": [
        -0.7819600105285645,
        -0.7819600105285645,
        0.42254000902175903
      ],
      "type": "VEC3"
    },
    {
      "bufferView": 2,
      "byteOffset": 792336,
      "componentType": 5126,
      "count": 640,
      "max": [
        0.9766724705696106,
        0.9766724705696106,
        0.2676568031311035
      ],
      "min": [
        -0.9766724705696106,
        -0.9766724705696106,
        -0.7490118741989136
      ],
      "type": "VEC3"
    },
    {
      "bufferView": 0,
      "byteOffset": 690432,
      "componentType": 5125,
      "count": 3072,
      "type": "SCALAR"
    }
  ],
  "asset": {
    "extras": {
      "author": "Robin Butler (https://sketchfab.com/StarTrekGuy)",
      "license": "CC-BY-NC-4.0 (http://creativecommons.org/licenses/by-nc/4.0/)",
      "source": "https://sketchfab.com/3d-models/bubblecraft-spaceship-5a7ec388f73747249cfd7b95631c3043",
      "title": "BubbleCraft - Spaceship"
    },
    "generator": "Sketchfab-12.68.0",
    "version": "2.0"
  },
  "bufferViews": [
    {
      "buffer": 0,
      "byteLength": 702720,
      "name": "floatBufferViews",
      "target": 34963
    },
    {
      "buffer": 0,
      "byteLength": 143888,
      "byteOffset": 702720,
      "byteStride": 8,
      "name": "floatBufferViews",
      "target": 34962
    },
    {
      "buffer": 0,
      "byteLength": 800016,
      "byteOffset": 846608,
      "byteStride": 12,
      "name": "floatBufferViews",
      "target": 34962
    },
    {
      "buffer": 0,
      "byteLength": 2640,
      "byteOffset": 1646624,
      "byteStride": 16,
      "name": "floatBufferViews",
      "target": 34962
    }
  ],
  "buffers": [
    {
      "byteLength": 1649264,
      "uri": "scene.bin"
    }
  ],
  "images": [
    {
      "uri": "textures/Material.007_baseColor.png"
    },
    {
      "uri": "textures/Material.007_metallicRoughness.png"
    },
    {
      "uri": "textures/Material.007_normal.png"
    }
  ],
  "materials": [
    {
      "doubleSided": true,
      "name": "Material.004",
      "pbrMetallicRoughness": {
        "baseColorFactor": [
          0.0,
          0.0,
          0.0,
          1.0
        ],
        "roughnessFactor": 0.0
      }
    },
    {
      "doubleSided": true,
      "name": "Material.006",
      "pbrMetallicRoughness": {
        "baseColorFactor": [
          0.0037316297,
          0.0245315105,
          0.1225676043,
          1.0
        ],
        "metallicFactor": 0.0
      }
    },
    {
      "doubleSided": true,
      "emissiveFactor": [
        1.0,
        1.0,
        1.0
      ],
      "name": "Material.003",
      "pbrMetallicRoughness": {
        "roughnessFactor": 0.6
      }
    },
    {
      "alphaMode": "BLEND",
      "doubleSided": true,
      "name": "Material.005",
      "pbrMetallicRoughness": {
        "baseColorFactor": [
          1.0,
          1.0,
          1.0,
          0.1751143293
        ],
        "roughnessFactor": 0.0
      }
    },
    {
      "doubleSided": true,
      "name": "Material.002",
      "pbrMetallicRoughness": {
        "roughnessFactor": 0.1907393293
      }
    },
    {
      "doubleSided": true,
      "name": "Material.001",
      "pbrMetallicRoughness": {
        "baseColorFactor": [
          0.0,
          0.4594144285,
          1.0,
          1.0
        ],
        "roughnessFactor": 0.0
      }
    },
    {
      "doubleSided": true,
      "name": "Material.007",
      "normalTexture": {
        "index": 2
      },
      "pbrMetallicRoughness": {
        "baseColorTexture": {
          "index": 0
        },
        "metallicFactor": 0.0,
        "metallicRoughnessTexture": {
          "index": 1
        },
        "roughnessFactor": 0.0
      }
    },
    {
      "doubleSided": true,
      "emissiveFactor": [
        1.0,
        0.620973073,
        0.522175692
      ],
      "name": "Material",
      "pbrMetallicRoughness": {
        "baseColorFactor": [
          0.8370807927,
          0.0,
          0.0,
          1.0
        ],
        "metallicFactor": 0.0,
        "roughnessFactor": 0.0
      }
    }
  ],
  "meshes": [
    {
      "name": "Sphere_0",
      "primitives": [
        {
          "attributes": {
            "NORMAL": 1,
            "POSITION": 0,
            "TEXCOORD_0": 2
          },
          "indices": 3,
          "material": 5,
          "mode": 4
        }
      ]
    },
    {
      "name": "Sphere_1",
      "primitives": [
        {
          "attributes": {
            "NORMAL": 5,
            "POSITION": 4,
            "TEXCOORD_0": 6
          },
          "indices": 7,
          "material": 4,
          "mode": 4
        }
      ]
    },
    {
      "name": "Sphere_2",
      "primitives": [
        {
          "attributes": {
            "NORMAL": 9,
            "POSITION": 8,
            "TEXCOORD_0": 10
          },
          "indices": 11,
          "material": 2,
          "mode": 4
        }
      ]
    },
    {
      "name": "Sphere_3",
      "primitives": [
        {
          "attributes": {
            "NORMAL": 13,
            "POSITION": 12,
            "TEXCOORD_0": 14
          },
          "indices": 15,
          "material": 0,
          "mode": 4
        }
      ]
    },
    {
      "name": "Sphere_4",
      "primitives": [
        {
          "attributes": {
            "NORMAL": 17,
            "POSITION": 16,
            "TANGENT": 18,
            "TEXCOORD_0": 19
          },
          "indices": 20,
          "material": 6,
          "mode": 4
        }
      ]
    },
    {
      "name": "Sphere_5",
      "primitives": [
        {
          "attributes": {
            "NORMAL": 22,
            "POSITION": 21,
            "TEXCOORD_0": 23
          },
          "indices": 24,
          "material": 7,
          "mode": 4
        }
      ]
    },
    {
      "name": "Sphere.001_0",
      "primitives": [
        {
          "attributes": {
            "NORMAL": 26,
            "POSITION": 25
          },
          "indices": 27,
          "material": 3,
          "mode": 4
        }
      ]
    },
    {
      "name": "Sphere.001_1",
      "primitives": [
        {
          "attributes": {
            "NORMAL": 29,
            "POSITION": 28
          },
          "indices": 30,
          "material": 4,
          "mode": 4
        }
      ]
    },
    {
      "name": "Cylinder_0",
      "primitives": [
        {
          "attributes": {
            "NORMAL": 32,
            "POSITION": 31
          },
          "indices": 33,
          "material": 0,
          "mode": 4
        }
      ]
    },
    {
      "name": "Cylinder_1",
      "primitives": [
        {
          "attributes": {
            "NORMAL": 35,
            "POSITION": 34
          },
          "indices": 36,
          "material": 1,
          "mode": 4
        }
      ]
    },
    {
      "name": "Cylinder_2",
      "primitives": [
        {
          "attributes": {
            "NORMAL": 38,
            "POSITION": 37
          },
          "indices": 39,
          "material": 2,
          "mode": 4
        }
      ]
    }
  ],
  "nodes": [
    {
      "children": [
        1
      ],
      "matrix": [
        1.0,
        0.0,
        0.0,
        0.0,
        0.0,
        2.220446049250313e-16,
        -1.0,
        0.0,
        0.0,
        1.0,
        2.220446049250313e-16,
        0.0,
        0.0,
        0.0,
        0.0,
        1.0
      ],
      "name": "Sketchfab_model"
    },
    {
      "children": [
        2,
        4,
        11,
        14
      ],
      "name": "Root"
    },
    {
      "children": [
        3
      ],
      "matrix": [
        -0.29086000000000006,
        0.9551700000000001,
        -0.05519000000000001,
        0.0,
        -0.7711,
        -0.19988000000000003,
        0.6045200000000001,
        0.0,
        0.5663900000000001,
        0.21839000000000003,
        0.7946700000000001,
        0.0,
        4.076250000000001,
        1.00545,
        5.903860000000001,
        1.0
      ],
      "name": "Lamp"
    },
    {
      "name": "Lamp"
    },
    {
      "children": [
        5,
        6,
        7,
        8,
        9,
        10
      ],
      "matrix": [
        1.0,
        0.0,
        0.0,
        0.0,
        0.0,
        1.0,
        0.0,
        0.0,
        0.0,
        0.0,
        0.16547000000000003,
        0.0,
        0.0,
        0.0,
        0.0,
        1.0
      ],
      "name": "Sphere"
    },
    {
      "mesh": 0,
      "name": "Sphere_0"
    },
    {
      "mesh": 1,
      "name": "Sphere_1"
    },
    {
      "mesh": 2,
      "name": "Sphere_2"
    },
    {
      "mesh": 3,
      "name": "Sphere_3"
    },
    {
      "mesh": 4,
      "name": "Sphere_4"
    },
    {
      "mesh": 5,
      "name": "Sphere_5"
    },
    {
      "children": [
        12,
        13
      ],
      "matrix": [
        0.6492400000000002,
        0.0,
        0.0,
        0.0,
        0.0,
        0.6492400000000002,
        0.0,
        0.0,
        0.0,
        0.0,
        0.6492400000000002,
        0.0,
        0.0,
        0.0,
        -0.010940000000000002,
        1.0
      ],
      "name": "Sphere.001"
    },
    {
      "mesh": 6,
      "name": "Sphere.001_0"
    },
    {
      "mesh": 7,
      "name": "Sphere.001_1"
    },
    {
      "children": [
        15,
        16,
        17
      ],
      "matrix": [
        0.14538,
        0.0,
        0.0,
        0.0,
        0.0,
        0.14538,
        0.0,
        0.0,
        0.0,
        0.0,
        0.12389000000000001,
        0.0,
        0.0,
        0.0,
        0.023240000000000004,
        1.0
      ],
      "name": "Cylinder"
    },
    {
      "mesh": 8,
      "name": "Cylinder_0"
    },
    {
      "mesh": 9,
      "name": "Cylinder_1"
    },
    {
      "mesh": 10,
      "name": "Cylinder_2"
    }
  ],
  "samplers": [
    {
      "magFilter": 9729,
      "minFilter": 9987,
      "wrapS": 10497,
      "wrapT": 10497
    }
  ],
  "scene": 0,
  "scenes": [
    {
      "name": "Sketchfab_Scene",
      "nodes": [
        0
      ]
    }
  ],
  "textures": [
    {
      "sampler": 0,
      "source": 0
    },
    {
      "sampler": 0,
      "source": 1
    },
    {
      "sampler": 0,
      "source": 2
    }
  ]
}
